<svg xmlns="http://www.w3.org/2000/svg" viewBox="0 0 24 24" fill="none">
  <ellipse cx="12" cy="6.2" rx="7.2" ry="2.6" fill="#CC2927"/>
  <path fill="#CC2927" d="M4.8 6.2v8.6c0 1.5 3.2 2.6 7.2 2.6s7.2-1.1 7.2-2.6V6.2c0 1.5-3.2 2.6-7.2 2.6S4.8 7.7 4.8 6.2z"/>
  <ellipse cx="12" cy="14.8" rx="7.2" ry="2.6" fill="#A12121"/>
  <path fill="#F3F3F3" d="M10.2 8.4h1.4v8.2h-1.4zm2.2 0H15c.9 0 1.5.6 1.5 1.5 0 .7-.4 1.2-1 1.4l1.3 2.3h-1.6l-1.1-2h-.5v2h-1.2V8.4zm1.2 1.1v1.6h.4c.3 0 .5-.2.5-.5s-.2-.5-.5-.5h-.4z"/>
</svg>
