<?xml version="1.0" standalone="no"?><!DOCTYPE svg PUBLIC "-//W3C//DTD SVG 1.1//EN" "http://www.w3.org/Graphics/SVG/1.1/DTD/svg11.dtd"><svg t="1784462276952" class="icon" viewBox="0 0 1024 1024" version="1.1" xmlns="http://www.w3.org/2000/svg" p-id="10820" xmlns:xlink="http://www.w3.org/1999/xlink" width="256" height="256"><path d="M1013.443299 517.278351c0 280.808247-225.913402 506.721649-506.72165 506.721649S0 798.086598 0 517.278351 225.913402 10.556701 506.721649 10.556701s506.721649 225.913402 506.72165 506.72165" fill="#8AC965" p-id="10821"></path><path d="M263.917526 696.742268l225.913402-219.579381c8.445361-8.445361 23.224742-8.445361 33.781443 0L749.525773 696.742268h-485.608247" fill="#F0F3F8" p-id="10822"></path><path d="M263.917526 707.298969c-2.11134 0-6.334021-2.11134-8.445361-4.22268 0-2.11134-2.11134-4.22268-2.11134-6.334021 0-4.22268 2.11134-6.334021 4.22268-8.445361l225.913402-219.579381c14.779381-12.668041 35.892784-12.668041 48.560825 0l244.915464 238.581443H263.917526c2.11134 0 2.11134 0 0 0z m29.558763-23.224742h426.490721L515.16701 485.608247c-4.22268-4.22268-12.668041-4.22268-16.890721 0l-204.8 198.46598z" fill="#8AC965" p-id="10823"></path><path d="M263.917526 348.371134h483.496907c6.334021 0 10.556701 4.22268 10.556701 10.556701v337.814433c0 6.334021-4.22268 10.556701-10.556701 10.556701H263.917526c-6.334021 0-10.556701-4.22268-10.556701-10.556701V358.927835c0-6.334021 4.22268-10.556701 10.556701-10.556701z" fill="#FFFFFF" p-id="10824"></path><path d="M749.525773 717.85567h-485.608247c-12.668041 0-23.224742-10.556701-23.224742-23.224742V358.927835c0-12.668041 10.556701-23.224742 23.224742-23.224742h483.496907c12.668041 0 23.224742 10.556701 23.224742 23.224742v337.814433c0 12.668041-8.445361 21.113402-21.113402 21.113402z m-485.608247-358.927835v335.703093h483.496907V358.927835H263.917526z m0-10.556701v10.556701-10.556701z" fill="#8AC965" p-id="10825"></path><path d="M506.721649 597.509278c-8.445361 0-16.890722-4.22268-25.336082-10.556701L236.470103 348.371134h540.503093L532.057732 586.952577c-8.445361 6.334021-16.890722 10.556701-25.336083 10.556701z m16.890722-19.002062z m-230.136082-206.91134l204.8 200.57732c4.22268 4.22268 12.668041 4.22268 16.890721 0l204.8-200.57732H293.476289z" fill="#8AC965" p-id="10826"></path></svg>