<?xml version="1.0" standalone="no"?><!DOCTYPE svg PUBLIC "-//W3C//DTD SVG 1.1//EN" "http://www.w3.org/Graphics/SVG/1.1/DTD/svg11.dtd"><svg t="1784462298962" class="icon" viewBox="0 0 1024 1024" version="1.1" xmlns="http://www.w3.org/2000/svg" p-id="14125" xmlns:xlink="http://www.w3.org/1999/xlink" width="256" height="256"><path d="M512 0a512 512 0 1 0 0 1024A512 512 0 0 0 512 0z" fill="#5997FF" p-id="14126"></path><path d="M674.962286 217.014857a28.452571 28.452571 0 0 1 26.477714 31.012572v527.36a28.452571 28.452571 0 0 1-26.477714 30.427428H349.330286a30.134857 30.134857 0 0 1-28.525715-30.427428v-527.36c0-16.164571 12.434286-29.696 28.525715-31.012572h325.632zM512 696.832a42.642286 42.642286 0 1 0 0 85.357714 42.642286 42.642286 0 0 0 0-85.284571z m143.652571-426.642286H356.937143a15.652571 15.652571 0 0 0-15.652572 14.262857v359.497143c0 6.582857 7.972571 10.24 15.652572 10.24h298.642286c7.972571 0 12.8-3.657143 12.8-10.24V284.525714a12.8 12.8 0 0 0-12.8-14.262857z" fill="#FFFFFF" p-id="14127"></path></svg>